:SAMPLES-PER-SECOND 30
:FULLY-SPECIFIED
:DEGREES
75
root  39.6723 39.2257 -2.48559 178.942 85.8367 179.23
RightUpLeg  -23.7797 -1.19967 2.08161
RightLeg  42.7968 7.23792 -2.84134
RightFoot  4.76998 -0.415346 2.64758
RightToes  8.73114e-010 -1.59028e-015 9.93923e-017
Spine  -0.693218 -4.35714 -8.29668
Spine1  7.4696 -6.05323 4.05346
HEad  -17.2046 2.89718 3.69978
LeftShoulder1  9.93923e-017 0 1.22299e-017
LeftArm  22.4675 10.1428 -81.9437
LeftForeArm  -41.9036 -32.2425 20.1772
LeftHand  0.990305 7.02981 -2.59241
RightShoulder  1.98785e-016 -4.96962e-017 1.55301e-017
RightArm  -1.80319 -58.6623 82.2563
RightForeArm  -7.00221 10.0901 4.71607
RightHand  1.64041 -12.9544 -7.52776
LeftUpLeg  -2.27156 -2.77479 -3.57343
LeftLeg  17.4944 -13.1053 2.14614
LeftFoot  -10.0945 -0.04498 0.529181
LeftToes  -2.6557e-010 -5.74853e-011 7.92038e-011
76
root  41.541 39.192 -2.34129 179.87 84.205 -179.603
RightUpLeg  -25.1522 -0.806942 1.74354
RightLeg  32.6068 7.79168 -1.37731
RightFoot  3.63044 -0.349934 2.38924
RightToes  8.73114e-010 -1.59028e-015 9.93923e-017
Spine  -0.638694 -5.38276 -9.81799
Spine1  7.70887 -7.31814 5.78118
HEad  -17.6132 3.57544 3.94872
LeftShoulder1  9.93923e-017 0 1.22299e-017
LeftArm  21.1228 2.46214 -80.6138
LeftForeArm  -40.4109 -36.1923 21.9461
LeftHand  1.01138 7.20278 -1.80259
RightShoulder  1.98785e-016 -4.96962e-017 1.55301e-017
RightArm  6.66677 -66.3373 77.5899
RightForeArm  -13.6504 11.5717 3.93571
RightHand  1.66877 -13.0675 -7.70002
LeftUpLeg  1.52451 -0.64294 -2.14272
LeftLeg  16.2046 -16.8529 1.17616
LeftFoot  -10.9496 -0.0470212 0.726262
LeftToes  -2.6557e-010 -5.74853e-011 7.92038e-011
77
root  43.3886 39.0943 -2.24864 -177.567 82.8869 -177.392
RightUpLeg  -25.8506 0.346314 1.07857
RightLeg  19.726 8.49486 -0.256718
RightFoot  3.46801 -0.366635 2.52767
RightToes  8.73114e-010 -1.59028e-015 9.93923e-017
Spine  -1.4179 -6.48531 -9.78793
Spine1  8.30293 -8.36823 6.37737
HEad  -17.6573 4.24287 4.15953
LeftShoulder1  9.93923e-017 0 1.22299e-017
LeftArm  20.3182 -4.45306 -79.0828
LeftForeArm  -39.1115 -38.6566 23.268
LeftHand  1.01248 7.20798 -0.935859
RightShoulder  1.98785e-016 -4.96962e-017 1.55301e-017
RightArm  13.0541 -72.445 70.4281
RightForeArm  -15.258 12.4229 3.05085
RightHand  1.5735 -12.831 -6.72233
LeftUpLeg  4.95029 0.38991 -0.618013
LeftLeg  14.1693 -18.9477 0.823948
LeftFoot  -11.6507 -0.0391192 0.301857
LeftToes  -2.6557e-010 -5.74853e-011 7.92038e-011
78
root  45.2552 38.9309 -2.17108 -175.553 81.9624 -175.806
RightUpLeg  -25.5205 2.76583 -0.470137
RightLeg  5.27666 6.7417 0.303059
RightFoot  3.57041 -0.404906 2.77889
RightToes  8.73114e-010 -1.59028e-015 9.93923e-017
Spine  -2.29223 -7.35529 -9.27711
Spine1  8.96012 -9.21335 6.62188
HEad  -17.4688 4.7323 4.13252
LeftShoulder1  9.93923e-017 0 1.22299e-017
LeftArm  18.9033 -9.80855 -77.8056
LeftForeArm  -37.3348 -40.0269 24.1154
LeftHand  0.986091 7.01499 -0.261384
RightShoulder  1.98785e-016 -4.96962e-017 1.55301e-017
RightArm  20.2282 -76.4221 59.7694
RightForeArm  -13.2575 11.9923 3.27615
RightHand  1.48861 -12.6275 -5.77466
LeftUpLeg  8.197 1.07385 0.811211
LeftLeg  12.2604 -20.1347 0.817737
LeftFoot  -11.6895 -0.0175253 -1.10091
LeftToes  -2.6557e-010 -5.74853e-011 7.92038e-011
79
root  47.2478 38.5928 -2.03394 -177.418 81.5669 -177.732
RightUpLeg  -25.5545 3.48414 -1.49621
RightLeg  -4.05773 4.72628 0.419303
RightFoot  2.04797 -0.30426 2.296
RightToes  8.73114e-010 -1.59028e-015 9.93923e-017
Spine  -2.75418 -7.76084 -9.96473
Spine1  9.53227 -9.79724 7.53991
HEad  -17.8841 5.07002 3.78761
LeftShoulder1  9.93923e-017 0 1.22299e-017
LeftArm  16.7898 -13.3924 -77.0572
LeftForeArm  -36.0246 -40.8292 24.6481
LeftHand  0.959837 6.83867 0.405848
RightShoulder  1.98785e-016 -4.96962e-017 1.55301e-017
RightArm  26.9474 -77.9203 48.9549
RightForeArm  -10.4412 10.8046 4.20244
RightHand  1.50025 -12.7446 -5.68015
LeftUpLeg  11.2946 1.28255 1.73496
LeftLeg  12.1687 -20.6438 0.815469
LeftFoot  -11.4677 0.00814177 -2.54135
LeftToes  -2.6557e-010 -5.74853e-011 7.92038e-011
80
root  49.3117 38.2338 -1.85264 -176.703 81.7896 -177.279
RightUpLeg  -27.112 3.77285 -1.41134
RightLeg  -4.51761 1.94616 0.219743
RightFoot  -0.0347321 -0.140157 1.21522
RightToes  8.73114e-010 -1.59028e-015 9.93923e-017
Spine  -3.24868 -7.79063 -10.4845
Spine1  10.3391 -10.2424 9.12373
HEad  -18.8888 5.56495 3.0893
LeftShoulder1  9.93923e-017 0 1.22299e-017
LeftArm  14.3562 -14.7853 -76.6807
LeftForeArm  -35.7167 -41.5899 25.1053
LeftHand  0.943986 6.74854 1.21221
RightShoulder  1.98785e-016 -4.96962e-017 1.55301e-017
RightArm  28.2421 -77.6319 43.6522
RightForeArm  -8.08026 9.60357 4.98319
RightHand  1.57615 -13.0793 -6.13078
LeftUpLeg  14.0733 0.133646 2.54486
LeftLeg  12.4688 -19.5092 0.876336
LeftFoot  -10.4248 0.0789038 -4.32877
LeftToes  -2.6557e-010 -5.74853e-011 7.92038e-011
